<svg xmlns="http://www.w3.org/2000/svg" viewBox="0 0 705.08 205.27"><defs><style>.cls-1{fill:#fff;}.cls-2{fill:#e50914;}</style></defs><g id="Camada_2" data-name="Camada 2"><g id="Camada_1-2" data-name="Camada 1"><g id="dcflix-logo"><g id="DCFLIX_RETO" data-name="DCFLIX RETO"><path class="cls-1" d="M160.87,93.45q.07-33.18.18-66.36a2.58,2.58,0,0,0-1.35-2.44Q141.88,12.94,124.3.82A4.2,4.2,0,0,0,121.77,0Q71.52,0,21.25,0a2.29,2.29,0,0,0-2.37,1.44Q9.59,19.56.38,37.75C-.28,39-.09,39.63,1,40.35c5,3.27,10,6.62,15.07,9.81a2.64,2.64,0,0,1,1.37,2.57q-.13,61.74-.09,123.6c0,2.63.1,5.26.17,7.88.14,5.63.12,11.29.08,16.95,0,1.29.36,1.59,1.64,1.35,2.87-.53,5.75-.93,8.63-1.34,30.9-4.46,62-8.31,93.05-11.55a6.41,6.41,0,0,0,3.45-1.4q17.33-13.32,35.05-26.17a2.66,2.66,0,0,0,1.31-2.4Q160.75,126.57,160.87,93.45Zm-52.94,38.13c0,8.09-5.53,14.95-13.87,17.46a22.65,22.65,0,0,1-4.38.8c-6.09.55-12.2,1.07-18.29,1.76-1.51.17-1.75-.27-1.75-1.59q.15-47,.21-94.08a2.82,2.82,0,0,0-1.49-2.74c-4-2.52-8-5.19-11.91-7.83,0-.11,0-.21.07-.32l1.07,0c10.69-.33,21.5-.51,32.06-.91,9.81-.38,18.52,6.49,18.43,16.72C107.87,84.24,108,108,107.93,131.58Z"/><path class="cls-1" d="M323,1.67q-2.67,15-5.35,30c-1.94,10.83-3.9,21.67-5.79,32.52-.25,1.41-.68,2-2.58,2-13.57,0-27.21.18-40.8.41-1.46,0-1.81-.31-1.8-1.57.08-7.52.05-15.06.09-22.58,0-1-.15-1.51-1.57-1.49q-24.8.28-49.63.58c-.11,0-.21,0-.76.14l4.72,3c2.6,1.63,5.18,3.3,7.83,4.86a2.25,2.25,0,0,1,1.28,2.22q-.09,36.93-.16,73.91c0,7.47,5.73,13.26,14.05,14.27a20.86,20.86,0,0,0,3.26.1c6.4-.22,12.79-.47,19.19-.61,1.28,0,1.68-.3,1.67-1.46-.06-6.81,0-13.63,0-20.44,0-1.12.33-1.44,1.63-1.47q22.79-.48,45.6-.81c1.43,0,1.67.37,1.66,1.5q-.07,21.41-.07,42.84c0,5.72,0,11.45.12,17.16,0,1.05-.33,1.35-1.56,1.37-33.18.55-66.48,1.87-99.62,3.86a3.8,3.8,0,0,1-2.25-.53c-11.66-6.83-23.33-13.72-35-20.54a2,2,0,0,1-1.16-2c.11-44,.28-88.15.29-132.13a2.4,2.4,0,0,1,1.24-2.2Q194.91,12.68,212.5,1A4.32,4.32,0,0,1,215,.22q20.37,0,40.77,0a4.56,4.56,0,0,1,2.68.81c5.19,3.4,10.43,6.73,15.59,10.14,1.13.75,1.52.6,2.06-.49,1.57-3.19,3.29-6.33,4.9-9.49a1.61,1.61,0,0,1,1.71-1q19.47,0,39,0C323.22.2,323.12.81,323,1.67Z"/><path class="cls-2" d="M371.76,79q20.82.08,41.65.33c0,10.18,0,15.27,0,25.46q-20.83-.33-41.67-.44,0,36.63,0,73.26-16.17-.09-32.32,0,0-88.71,0-177.41h85.24c0,10.2,0,15.31,0,25.51q-26.52-.12-53-.16Q371.74,52.28,371.76,79Z"/><path class="cls-2" d="M440.27.18H472.5q.13,77.39.28,154.77,26.57,1.28,53.09,3c0,10.52,0,15.78.06,26.29q-42.67-3.16-85.4-4.95Q440.4,89.72,440.27.18Z"/><path class="cls-2" d="M539.58.19H571.8l.42,188.08q-16.11-1.53-32.23-2.92Q539.78,92.77,539.58.19Z"/><path class="cls-2" d="M702.74.21q-16.51,48.6-33.6,97,18.42,53.88,35.94,108.07-16.89-2.62-33.8-5.09-13-40.73-26.37-81.3-13.1,37.25-26.48,74.4-15-1.8-30.12-3.37,18.16-47.7,35.79-95.59Q607.46,47.16,590.25.19h33.39Q636,36.43,648.06,72.74,660.6,36.53,672.86.21Z"/></g></g></g></g></svg>