<svg xmlns="http://www.w3.org/2000/svg" viewBox="0 0 323.05 203.89"><defs><style>.cls-1{fill:#fff;}.cls-2{fill:#e50914;}</style></defs><g id="Camada_2" data-name="Camada 2"><g id="Camada_1-2" data-name="Camada 1"><g id="dcflix_icon" data-name="dcflix icon"><g id="icon"><path class="cls-1" d="M161.08,95.6q0-33.93,0-67.88a2.7,2.7,0,0,0-1.35-2.51C147.92,17.12,136.06,9,124.3.83A4.14,4.14,0,0,0,121.77,0Q71.52,0,21.25,0a2.29,2.29,0,0,0-2.37,1.44Q9.58,19.55.38,37.75C-.28,39-.09,39.63,1,40.34c5,3.24,10,6.56,15.06,9.72a2.59,2.59,0,0,1,1.37,2.55q-.14,61.61-.1,123.33c0,2.63.09,5.25.16,7.87.14,5.61.12,11.26.07,16.91,0,1.29.37,1.57,1.64,1.31,2.87-.58,5.76-1,8.63-1.47a926.73,926.73,0,0,1,93.33-9.45,6.14,6.14,0,0,0,3.46-1.21Q142,177.51,159.8,165.7a2.53,2.53,0,0,0,1.31-2.36Q161,129.5,161.08,95.6Zm-53,36.54c0,8.12-5.53,14.81-13.89,17.08a22.75,22.75,0,0,1-4.4.68c-6.11.39-12.23.79-18.34,1.38-1.51.15-1.76-.29-1.75-1.61q.15-46.89.19-93.87a2.82,2.82,0,0,0-1.49-2.74c-4-2.53-8-5.21-11.92-7.85a3,3,0,0,0,.07-.32l1.07,0c10.7-.3,21.52-.43,32.08-.74,9.88-.3,18.55,6.69,18.47,17C108,84.61,108.09,108.45,108.05,132.14Z"/><path class="cls-1" d="M323,1.93q-2.65,17.21-5.32,34.4-2.88,18.47-5.75,36.94c-.24,1.59-.66,2.23-2.56,2.1-13.52-.94-27.14-1.68-40.7-2.28-1.46-.07-1.81-.45-1.8-1.82.05-8.25,0-16.52,0-24.76,0-1.13-.15-1.67-1.57-1.7q-24.79-.6-49.62-1c-.1,0-.21,0-.76.11l4.73,3.3c2.61,1.81,5.19,3.67,7.85,5.43A2.53,2.53,0,0,1,228.77,55q0,39.31.08,78.67c0,8,5.77,14.71,14.09,16.75a20,20,0,0,0,3.26.48c6.39.51,12.77,1,19.15,1.68,1.27.13,1.67-.12,1.66-1.4-.08-7.47,0-14.94-.1-22.41,0-1.24.33-1.55,1.63-1.44,15.11,1.3,30.31,2.79,45.38,4.46,1.42.16,1.66.64,1.66,1.93q-.06,24.56,0,49.11c0,6.55,0,13.12.13,19.69,0,1.21-.32,1.48-1.54,1.26a905.53,905.53,0,0,0-99.24-12,4.07,4.07,0,0,1-2.25-.85c-11.57-8.54-23.29-16.94-35.15-25.07a2.32,2.32,0,0,1-1.16-2.15c0-45.39,0-90.85-.05-136.19a2.44,2.44,0,0,1,1.23-2.25Q195,13.24,212.5,1A4.14,4.14,0,0,1,215,.24q20.37,0,40.77,0a4.28,4.28,0,0,1,2.69.88c5.19,3.71,10.45,7.39,15.62,11.21,1.12.83,1.51.67,2.05-.52,1.56-3.51,3.27-7,4.87-10.49A1.59,1.59,0,0,1,282.75.24q19.47.06,39,0C323.22.23,323.12.93,323,1.93Z"/><path class="cls-2" d="M119.6,156.44c5.48-.22,8.22-.31,13.69-.46v8.92c-5.48.16-8.22.25-13.69.49,0,10.33,0,15.5,0,25.84-4.24.21-6.36.32-10.6.58L109,129q14-.6,28-.85c0,3.57,0,5.35,0,8.92-7,.14-10.46.24-17.44.48C119.61,145.12,119.61,148.89,119.6,156.44Z"/><path class="cls-2" d="M142.17,128.09c4.24-.07,6.36-.09,10.61-.12l0,53.39c7-.07,10.49-.07,17.47,0v8.89c-9.35-.11-18.73-.05-28.08.18Q142.17,159.26,142.17,128.09Z"/><path class="cls-2" d="M174.85,128c4.24,0,6.36.08,10.6.15l0,62.38c-4.24-.12-6.37-.16-10.61-.23Q174.86,159.17,174.85,128Z"/><path class="cls-2" d="M228.5,129.7q-5.5,15-11,30,6,16.58,11.89,33.18c-4.47-.35-6.71-.51-11.18-.81-3.48-10.18-5.22-15.24-8.7-25.34-3.5,9.76-5.25,14.63-8.75,24.37-4-.18-6-.26-9.93-.39L202.62,159q-5.53-15.36-11.1-30.71c4.39.11,6.59.17,11,.31,3.21,9.33,4.81,14,8,23.4,3.26-9.1,4.9-13.65,8.16-22.78C222.61,129.4,224.57,129.49,228.5,129.7Z"/></g></g></g></g></svg>